<svg width="336" height="478" viewBox="0 0 336 478" fill="none" xmlns="http://www.w3.org/2000/svg">
<path d="M222.598 141.047C222.598 141.047 241.376 181.126 241.376 183.242C241.376 185.358 224.714 194.421 221.54 196.325C219.078 197.727 216.541 198.993 213.94 200.116L215.845 218.683C215.845 218.683 244.533 212.141 256.558 205.6C268.583 199.058 268.16 191.67 265.374 180.703C262.588 169.735 244.057 127.347 244.057 127.347L222.598 141.047Z" fill="#FFEECC"/>
<g style="mix-blend-mode:multiply" opacity="0.5">
<path d="M256.505 205.6C268.53 199.058 268.107 191.67 265.321 180.703C262.535 169.735 244.004 127.347 244.004 127.347L241.006 129.251L240.054 131.014C240.054 131.014 257.351 173.473 258.392 187.614C259.097 197.118 239.966 208.967 227.323 215.738C236.704 213.252 249.47 209.426 256.505 205.6Z" fill="#BBBBBF"/>
</g>
<path d="M222.598 141.047C222.598 141.047 241.376 181.126 241.376 183.242C241.376 185.358 224.714 194.421 221.54 196.325C219.078 197.727 216.541 198.993 213.94 200.116L215.845 218.683C215.845 218.683 244.533 212.141 256.558 205.6C268.583 199.058 268.16 191.67 265.374 180.703C262.588 169.735 244.057 127.347 244.057 127.347L222.598 141.047Z" stroke="#263238" stroke-linecap="round" stroke-linejoin="round"/>
<path d="M87.1104 132.196C87.1104 132.196 73.41 182.395 73.0044 191.264C72.5989 200.134 100.211 217.625 101.216 218.683C102.221 219.741 99.647 188.179 99.647 188.179L109.01 142.334L87.1104 132.196Z" fill="#FFEECC"/>
<g style="mix-blend-mode:multiply" opacity="0.5">
<path d="M93.3875 136.304L93.0878 134.946L87.1104 132.196C87.1104 132.196 73.41 182.395 73.0044 191.264C72.5989 200.134 100.211 217.625 101.216 218.683C101.622 219.106 101.463 214.381 101.128 208.544C92.9114 201.579 81.1153 191.776 79.74 187.65" fill="#BBBBBF"/>
</g>
<path d="M87.1104 132.196C87.1104 132.196 73.41 182.395 73.0044 191.264C72.5989 200.134 100.211 217.625 101.216 218.683C102.221 219.741 99.647 188.179 99.647 188.179L109.01 142.334L87.1104 132.196Z" stroke="#263238" stroke-linecap="round" stroke-linejoin="round"/>
<path d="M151.451 81.767C151.451 81.767 145.815 79.4571 135.5 79.8803C125.185 80.3035 125.038 78.9458 112.219 78.9458C96.6847 78.9458 77.2009 128.087 77.2009 128.087C77.2009 128.087 86.8987 137.591 96.4026 141.594C101.66 143.897 107.188 145.526 112.854 146.443L114.335 178.728H218.966L220.217 146.443L252.926 125.231C252.926 125.231 236.88 96.543 229.087 85.7872C221.293 75.0314 213 77.8262 201 78.9458C201 78.9458 201.184 78.9458 187 80.5C180 81.267 172.605 81.7074 167.056 79.8803C167.056 79.8803 160.32 74.2732 151.451 81.767Z" fill="#2F2F33" stroke="#263238" stroke-linecap="round" stroke-linejoin="round"/>
<path fill-rule="evenodd" clip-rule="evenodd" d="M113.5 146.5L114.453 93L102 143.3L113.5 146.5Z" fill="#212126"/>
<path fill-rule="evenodd" clip-rule="evenodd" d="M206.192 178.862V116C206.192 100.05 192.708 95.107 174.722 88.5142C168.465 86.2203 161.662 83.7266 154.692 80.5L154 80.3629C161.833 75.2577 167.547 80.0148 167.547 80.0148C173.097 81.8419 180 81.25 186 80.5C194 79.5 204 78.5 204 78.5C205.453 78.4235 206.878 78.2924 208.277 78.1637C216.023 77.4509 222.977 76.8111 229.578 85.9216C237.371 96.6774 253.417 125.365 253.417 125.365L220.709 146.577L219.457 178.862H206.192Z" fill="#212126"/>
<path d="M113.912 93.1576L113.489 146.743" stroke="#1A1D1E" stroke-width="0.5" stroke-linecap="round" stroke-linejoin="round"/>
<path d="M117.703 98.0242C117.703 98.0242 119.184 124.173 124.756 138.737" stroke="#1A1D1E" stroke-width="0.5" stroke-linecap="round" stroke-linejoin="round"/>
<path d="M125.725 140.836C126.929 144.39 128.408 147.845 130.151 151.168" stroke="#263238" stroke-width="0.5" stroke-linecap="round" stroke-linejoin="round"/>
<path d="M121.07 95.0619C123.072 104.57 125.898 113.886 129.516 122.903" stroke="#1A1D1E" stroke-width="0.5" stroke-linecap="round" stroke-linejoin="round"/>
<path d="M212.019 99.6992C212.019 99.6992 206.958 120.382 202.515 129.674" stroke="#1A1D1E" stroke-width="0.5" stroke-linecap="round" stroke-linejoin="round"/>
<path d="M220.217 146.531L220.006 104.76" stroke="#1A1D1E" stroke-width="0.5" stroke-linecap="round" stroke-linejoin="round"/>
<path d="M217.908 105.606C217.908 105.606 214.099 132.055 204.824 145.896" stroke="#1A1D1E" stroke-width="0.5" stroke-linecap="round" stroke-linejoin="round"/>
<path d="M213.27 140.624C213.27 140.624 209.039 148.647 206.094 152.861" stroke="#1A1D1E" stroke-width="0.5" stroke-linecap="round" stroke-linejoin="round"/>
<path d="M145.544 84.9409C145.544 84.9409 148.506 103.085 152.721 112.359C156.935 121.634 164.323 123.538 170.653 120.805C176.983 118.072 181.62 104.548 181.232 87.3036" stroke="#1A1D1E" stroke-width="0.5" stroke-linecap="round" stroke-linejoin="round"/>
<path d="M130.574 46.9606C130.574 46.9606 126.554 40.0135 123.398 43.5928C120.242 47.1722 125.937 55.4066 129.093 58.1396C132.249 60.8726 134.577 59.1975 134.383 56.2529C134.189 53.3083 130.574 46.9606 130.574 46.9606Z" fill="#FFEECC" stroke="#263238" stroke-linecap="round" stroke-linejoin="round"/>
<path d="M130.574 46.9606C130.574 46.9606 126.554 40.0135 123.398 43.5928C120.242 47.1722 125.937 55.4066 129.093 58.1396C132.249 60.8726 134.577 59.1975 134.383 56.2529C134.189 53.3083 130.574 46.9606 130.574 46.9606Z" stroke="#263238" stroke-linecap="round" stroke-linejoin="round"/>
<path d="M194.386 46.9606C194.386 46.9606 198.389 40.0135 201.562 43.5928C204.736 47.1722 199.023 55.4066 195.867 58.1396C192.711 60.8726 190.366 59.1975 190.577 56.2529C190.789 53.3083 194.386 46.9606 194.386 46.9606Z" fill="#FFEECC" stroke="#263238" stroke-linecap="round" stroke-linejoin="round"/>
<path d="M194.386 46.9606C194.386 46.9606 198.389 40.0135 201.562 43.5928C204.736 47.1722 199.023 55.4066 195.867 58.1396C192.711 60.8726 190.366 59.1975 190.577 56.2529C190.789 53.3083 194.386 46.9606 194.386 46.9606Z" stroke="#263238" stroke-linecap="round" stroke-linejoin="round"/>
<path d="M149.547 80.3035C151.538 89.3069 154.076 98.1807 157.146 106.876C160.955 116.362 168.114 116.362 171.076 110.243C174.038 104.125 175.925 81.3262 175.925 81.3262C175.925 81.3262 156.088 84.0945 149.547 80.3035Z" fill="#FFEECC" stroke="#263238" stroke-linecap="round" stroke-linejoin="round"/>
<path d="M130.997 49.2881C130.997 49.2881 135.423 70.5918 145.809 82C156.194 93.4082 160.973 94.1979 166.492 93.3692C172.01 92.5405 180.401 89.5529 187 70.5C195.217 55.583 194.915 44.0866 195.603 43.0286C196.29 41.9707 193.839 20.8823 182.096 11.8016C170.353 2.72091 157.199 -1.26404 145.809 8.64539C134.418 18.5548 127.189 34.7238 130.997 49.2881Z" fill="#FFEECC"/>
<path d="M130.997 49.2881C130.997 49.2881 135.615 70.0918 146 81.5C156.385 92.9082 160.973 94.1979 166.492 93.3692C172.01 92.5405 180.5 88.5 187.5 71C194.1 54.5 194.915 44.0866 195.603 43.0286C196.29 41.9707 193.839 20.8823 182.096 11.8016C170.353 2.72091 157.199 -1.26404 145.809 8.64539C134.418 18.5548 127.189 34.7238 130.997 49.2881Z" stroke="#263238" stroke-linecap="round" stroke-linejoin="round"/>
<path d="M166.439 59.4091C165.785 63.5275 165.431 67.688 165.381 71.8576C165.592 76.0718 166.862 77.3413 164.957 77.7645C163.053 78.1877 160.955 75.2254 160.955 75.2254" stroke="#263238" stroke-linecap="round" stroke-linejoin="round"/>
<path d="M145.333 62.7946C146.555 63.6774 148.015 64.17 149.523 64.2078C151.03 64.2455 152.514 63.8267 153.778 63.0061" stroke="#263238" stroke-linecap="round" stroke-linejoin="round"/>
<path d="M172.134 62.7946C173.353 63.6759 174.811 64.1677 176.315 64.2055C177.819 64.2432 179.3 63.8251 180.562 63.0061" stroke="#263238" stroke-linecap="round" stroke-linejoin="round"/>
<path d="M158.804 55.6887C158.804 55.6887 154.784 45.7617 141.506 50.399" stroke="#263238" stroke-linecap="round" stroke-linejoin="round"/>
<path d="M169.859 54.472C169.859 54.472 173.227 44.7566 185.252 50.4518" stroke="#263238" stroke-linecap="round" stroke-linejoin="round"/>
<path d="M161.36 63.5175C161.36 68.9482 155.136 73.3387 147.448 73.3387C139.761 73.3387 133.519 68.9482 133.519 63.5175C133.519 58.0867 139.338 55.8297 147.025 55.8297C154.713 55.8297 161.36 58.1043 161.36 63.5175Z" stroke="#263238" stroke-linecap="round" stroke-linejoin="round"/>
<path d="M193.434 63.5175C193.434 68.9482 187.192 73.3387 179.504 73.3387C171.816 73.3387 165.592 68.9482 165.592 63.5175C165.592 58.0867 171.393 55.8297 179.081 55.8297C186.769 55.8297 193.434 58.1043 193.434 63.5175Z" stroke="#263238" stroke-linecap="round" stroke-linejoin="round"/>
<path d="M23.9263 226.854L23.0258 418.271C23.0258 418.874 23.3046 419.453 23.8009 419.879C24.2972 420.305 24.9704 420.545 25.6723 420.545C26.3568 420.545 27.0144 420.316 27.5052 419.906C27.996 419.496 28.2813 418.938 28.3005 418.35L34.6596 227.123L23.9263 226.854Z" fill="#E1E1E6" stroke="#263238" stroke-linecap="round" stroke-linejoin="round"/>
<path d="M10.062 271.308L9.27673 469.077C9.27451 469.376 9.33522 469.672 9.45534 469.949C9.57547 470.225 9.75262 470.477 9.97647 470.688C10.2003 470.9 10.4664 471.067 10.7593 471.18C11.0522 471.294 11.3661 471.351 11.6827 471.349C12.3038 471.35 12.901 471.123 13.3495 470.717C13.7979 470.311 14.0628 469.757 14.0886 469.171L19.8529 271.56L10.062 271.308Z" fill="#E1E1E6" stroke="#263238" stroke-linecap="round" stroke-linejoin="round"/>
<path d="M311.994 226.854L312.814 418.271C312.816 418.569 312.756 418.865 312.637 419.14C312.517 419.416 312.341 419.667 312.119 419.878C311.897 420.089 311.632 420.257 311.341 420.372C311.049 420.486 310.737 420.545 310.421 420.545C309.796 420.545 309.195 420.317 308.746 419.907C308.296 419.498 308.033 418.939 308.011 418.35L302.238 227.123L311.994 226.854Z" fill="#E1E1E6" stroke="#263238" stroke-linecap="round" stroke-linejoin="round"/>
<path d="M325.744 271.308L326.563 469.077C326.565 469.376 326.504 469.672 326.384 469.949C326.264 470.225 326.087 470.477 325.863 470.688C325.639 470.9 325.373 471.067 325.08 471.18C324.787 471.294 324.474 471.351 324.157 471.349C323.538 471.349 322.942 471.123 322.496 470.716C322.051 470.31 321.789 469.756 321.768 469.171L315.987 271.56L325.744 271.308Z" fill="#E1E1E6" stroke="#263238" stroke-linecap="round" stroke-linejoin="round"/>
<path d="M108.106 279.775L107.646 454.66C107.596 455.097 107.718 455.535 107.987 455.884C108.256 456.233 108.65 456.465 109.088 456.531C109.514 456.472 109.903 456.254 110.173 455.921C110.444 455.588 110.577 455.166 110.545 454.739L113.981 279.98L108.106 279.775Z" fill="#E1E1E6" stroke="#263238" stroke-linecap="round" stroke-linejoin="round"/>
<path d="M228.75 273.425L229.254 427.426C229.297 427.799 229.17 428.171 228.899 428.466C228.628 428.762 228.235 428.957 227.8 429.012C227.366 428.957 226.974 428.761 226.706 428.465C226.439 428.17 226.316 427.797 226.364 427.426L222.916 273.552L228.75 273.425Z" fill="#E1E1E6" stroke="#263238" stroke-linecap="round" stroke-linejoin="round"/>
<path d="M106.066 273.425L106.57 427.426C106.613 427.799 106.486 428.171 106.215 428.466C105.944 428.762 105.551 428.957 105.116 429.012C104.682 428.957 104.29 428.761 104.022 428.465C103.755 428.17 103.632 427.797 103.68 427.426L100.232 273.552L106.066 273.425Z" fill="#E1E1E6" stroke="#263238" stroke-linecap="round" stroke-linejoin="round"/>
<path d="M225.503 279.775L226.076 454.66C226.135 455.097 225.992 455.535 225.679 455.884C225.365 456.233 224.905 456.465 224.395 456.531C223.899 456.469 223.448 456.25 223.133 455.918C222.818 455.586 222.662 455.165 222.695 454.739L218.686 279.98L225.503 279.775Z" fill="#E1E1E6" stroke="#263238" stroke-linecap="round" stroke-linejoin="round"/>
<path d="M165.706 293C207.93 293 242.158 285.227 242.158 275.638C242.158 266.049 207.93 258.276 165.706 258.276C123.483 258.276 89.2546 266.049 89.2546 275.638C89.2546 285.227 123.483 293 165.706 293Z" fill="#E1E1E6" stroke="#263238" stroke-linecap="round" stroke-linejoin="round"/>
<path d="M128.477 423.018C128.477 423.018 124.474 428.72 127.343 431.554C130.212 434.388 133.064 433.261 132.772 436.112C132.48 438.963 127.91 448.626 123.907 458.869C119.904 469.112 128.202 479.355 135.933 476.521C143.664 473.687 142.805 445.212 143.939 440.09C145.073 434.969 145.949 434.115 145.657 429.284C145.365 424.452 145.09 419.331 141.362 418.75C137.634 418.17 130.195 421.038 128.477 423.018Z" fill="#2F2F33" stroke="#263238" stroke-linecap="round" stroke-linejoin="round"/>
<path d="M140.761 468.668C135.607 466.722 127.704 467.115 123.254 467.559C124.749 473.995 130.47 478.519 135.933 476.521C138.218 475.685 139.713 472.646 140.761 468.668Z" fill="#1E1E21" stroke="#263238" stroke-linecap="round" stroke-linejoin="round"/>
<path d="M119.612 410.505C119.612 410.505 127.91 424.452 130.195 428.14C132.48 431.827 140.228 430.701 141.087 425.579C141.946 420.458 137.926 406.237 137.926 406.237L120.746 410.505H119.612Z" fill="#FFEECC" stroke="#263238" stroke-linecap="round" stroke-linejoin="round"/>
<path d="M99.8549 388.312C99.8549 388.312 97.5528 392.016 98.7038 394.577C99.8549 397.138 102.999 404.53 105.009 408.234C107.019 411.939 116.176 414.21 126.759 412.502C137.342 410.795 143.372 405.947 143.664 401.679C143.956 397.411 141.946 391.726 140.503 384.897C139.06 378.069 135.349 378.359 130.195 378.359C125.041 378.359 104.15 384.334 99.8549 388.312Z" fill="#2F2F33" stroke="#263238" stroke-linecap="round" stroke-linejoin="round"/>
<path d="M130.779 304.66C130.934 297.661 135.005 294.212 135.315 289.415C135.799 283.073 135.272 276.695 133.751 270.516L125.917 259.881C103.377 260.171 87.2274 260.547 86.9697 260.632C86.1107 260.905 85.5265 265.753 84.9596 269.731C84.9596 269.731 75.3902 270.943 77.1082 297.404C77.3488 301.092 87.0041 343.754 87.7084 348.62C92.0035 378.342 101.573 393.228 101.573 393.228C101.573 393.228 102.432 396.933 113.599 396.079C124.766 395.226 135.933 387.834 135.933 387.834C135.933 387.834 130.195 329.977 130.779 304.66Z" fill="#C8CDD0" stroke="#263238" stroke-linecap="round" stroke-linejoin="round"/>
<path d="M104.425 270.516C111.966 270.902 119.449 272.046 126.759 273.931C136.5 276.782 153.68 282.467 157.683 282.467C161.686 282.467 160.552 267.665 160.552 264.832C160.552 261.998 109.012 260.273 102.707 260.273C96.4016 260.273 104.425 270.516 104.425 270.516Z" fill="#FFEECC" stroke="#263238" stroke-linecap="round" stroke-linejoin="round"/>
<path d="M160.552 264.832C160.552 264.832 155.965 267.102 154.247 275.638C152.529 284.174 150.244 288.732 153.68 291.003C157.116 293.273 172.012 294.98 174.296 292.71C176.581 290.439 182.887 279.052 184.038 271.66C185.189 264.268 160.552 264.832 160.552 264.832Z" fill="#2F2F33" stroke="#263238" stroke-linecap="round" stroke-linejoin="round"/>
<path d="M180.018 267.665C177.355 270.702 175.228 274.166 173.73 277.908C172.515 281.826 171.557 285.818 170.861 289.859C176.342 291.352 181.7 293.258 186.89 295.561C196.064 299.538 211.526 302.389 226.404 305.804C241.282 309.218 245.302 312.632 250.456 312.632C255.61 312.632 261.916 308.638 269.939 298.975C277.962 289.312 271.073 268.809 263.067 262.544C255.061 256.279 212.093 251.174 206.372 252.881C200.651 254.589 180.018 267.665 180.018 267.665Z" fill="#C8CDD0" stroke="#263238" stroke-linecap="round" stroke-linejoin="round"/>
<path d="M129.903 292.181C129.903 292.181 123.993 355.022 111.932 364.804" stroke="#49606B" stroke-width="0.5" stroke-linecap="round" stroke-linejoin="round"/>
<path d="M125.728 351.829C125.728 351.829 121.038 372.315 108.737 380.459" stroke="#49606B" stroke-width="0.5" stroke-linecap="round" stroke-linejoin="round"/>
<path d="M201.785 280.76C201.785 280.76 183.454 281.903 195.48 289.859C207.506 297.814 229.273 302.953 229.273 302.953" stroke="#49606B" stroke-width="0.5" stroke-linecap="round" stroke-linejoin="round"/>
<path d="M334.863 263.466L328.678 257.934L314.384 227.205C313.706 225.807 312.641 224.63 311.315 223.811C309.988 222.991 308.455 222.564 306.893 222.579H29.2614C27.6968 222.561 26.1596 222.987 24.8298 223.806C23.5001 224.626 22.433 225.805 21.7537 227.205L3.9378 265.48L1 264.405V273.162L1.13744 273.06C1.31244 274.228 1.90924 275.294 2.81651 276.057C3.72378 276.82 4.87954 277.23 6.06815 277.208H330.069C331.321 277.237 332.535 276.781 333.455 275.937C334.375 275.093 334.929 273.927 335 272.684L334.863 263.466Z" fill="#5E5E61" stroke="#263238" stroke-linecap="round" stroke-linejoin="round"/>
<path d="M330.069 269.202H6.06831C5.26596 269.234 4.46864 269.062 3.75113 268.704C3.03361 268.346 2.41941 267.812 1.9661 267.154C1.51279 266.495 1.23521 265.733 1.15942 264.939C1.08362 264.144 1.21208 263.344 1.53274 262.612L21.7538 219.199C22.4298 217.795 23.4961 216.614 24.8266 215.794C26.1571 214.974 27.6961 214.55 29.2616 214.572H306.893C308.456 214.554 309.991 214.979 311.318 215.799C312.646 216.618 313.709 217.798 314.384 219.199L334.605 262.612C334.926 263.344 335.054 264.144 334.978 264.939C334.903 265.733 334.625 266.495 334.172 267.154C333.718 267.812 333.104 268.346 332.387 268.704C331.669 269.062 330.872 269.234 330.069 269.202Z" fill="#E1E1E6" stroke="#263238" stroke-linecap="round" stroke-linejoin="round"/>
<g style="mix-blend-mode:multiply" opacity="0.5">
<path d="M22.4752 240.043C22.4752 240.043 15.1393 245.045 19.7264 246.872C24.3135 248.699 77.0395 247.333 83.4649 245.506C89.8903 243.68 97.209 226.83 97.209 224.098C97.209 221.367 87.9661 219.403 84.5644 219.25C81.1627 219.096 36.2194 221.811 36.2194 221.811L22.4752 240.043Z" fill="#A8A8A8"/>
</g>
<g style="mix-blend-mode:multiply" opacity="0.5">
<path d="M284.748 248.699C295.128 248.699 303.543 245.229 303.543 240.948C303.543 236.668 295.128 233.197 284.748 233.197C274.368 233.197 265.953 236.668 265.953 240.948C265.953 245.229 274.368 248.699 284.748 248.699Z" fill="#A8A8A8"/>
</g>
<g style="mix-blend-mode:multiply" opacity="0.5">
<path d="M165.088 258.276C202.311 258.276 232.486 252.666 232.486 245.745C232.486 238.825 202.311 233.215 165.088 233.215C127.865 233.215 97.6901 238.825 97.6901 245.745C97.6901 252.666 127.865 258.276 165.088 258.276Z" fill="#A8A8A8"/>
</g>
<path d="M271.004 210.458C271.004 210.458 269.767 205.558 265.661 207.197C261.555 208.836 261.967 219.66 262.775 225.788C263.582 231.917 269.148 229.049 269.148 229.049V225.379C269.148 225.379 267.104 227.001 266.073 224.764C265.042 222.528 265.249 211.277 266.279 211.482C267.31 211.687 269.355 215.153 269.355 215.153C269.355 215.153 269.973 214.76 271.004 210.458Z" fill="#434346" stroke="#263238" stroke-linecap="round" stroke-linejoin="round"/>
<path d="M268.049 211.277V238.114C268.049 241.272 275.35 243.833 284.37 243.833C293.389 243.833 300.674 241.272 300.674 238.114V211.277H268.049Z" fill="#434346" stroke="#263238" stroke-linecap="round" stroke-linejoin="round"/>
<path d="M300.674 211.277C300.674 214.009 293.372 216.211 284.37 216.211C275.367 216.211 268.049 214.009 268.049 211.277C268.049 208.546 275.35 206.344 284.37 206.344C293.389 206.344 300.674 208.563 300.674 211.277Z" fill="#434346" stroke="#263238" stroke-linecap="round" stroke-linejoin="round"/>
<path d="M298.543 211.277C298.543 213.65 292.187 215.562 284.37 215.562C276.553 215.562 270.179 213.65 270.179 211.277C270.179 208.904 276.536 206.992 284.37 206.992C292.204 206.992 298.543 208.904 298.543 211.277Z" fill="#E1E1E6" stroke="#263238" stroke-linecap="round" stroke-linejoin="round"/>
<path d="M273.426 214.009C280.567 216.08 288.155 216.08 295.297 214.009C288.155 211.938 280.567 211.938 273.426 214.009Z" fill="#263238" stroke="#263238" stroke-linecap="round" stroke-linejoin="round"/>
<path d="M20.4479 223.535L20.6541 232.719L82.9322 233.334V222.715L20.4479 223.535Z" fill="#E1E1E6" stroke="#263238" stroke-linecap="round" stroke-linejoin="round"/>
<path d="M82.9323 233.334L91.9862 213.941V208.222L82.52 224.559L82.9323 233.334Z" fill="#E1E1E6" stroke="#263238" stroke-linecap="round" stroke-linejoin="round"/>
<path d="M20.4479 231.9L20.6541 241.102L82.9322 241.716V231.098L20.4479 231.9Z" fill="#E1E1E6" stroke="#263238" stroke-linecap="round" stroke-linejoin="round"/>
<path d="M82.9323 241.716L91.9862 222.306V216.587L82.52 232.924L82.9323 241.716Z" fill="#E1E1E6" stroke="#263238" stroke-linecap="round" stroke-linejoin="round"/>
<path d="M44.5002 200.249C44.5002 200.249 45.9434 197.398 43.8818 196.169C41.8201 194.94 39.5695 197.876 38.3326 198.815C37.0956 199.754 11.205 216.791 10.3804 219.455C9.55574 222.118 10.3804 227.991 15.9296 228.639C21.4788 229.288 26.4095 225.583 28.8835 224.969C31.3574 224.354 32.3195 224.149 32.3195 224.149L49.3794 201.273L44.5002 200.249Z" fill="#1C1C1E" stroke="#263238" stroke-linecap="round" stroke-linejoin="round"/>
<path d="M15.9296 228.656C21.4788 229.271 26.4095 225.601 28.8834 224.986C31.3574 224.371 32.3195 224.167 32.3195 224.167L32.9379 223.33L16.9088 220.086C16.0374 219.271 14.917 218.767 13.7251 218.656C12.5332 218.545 11.3379 218.832 10.3288 219.472C9.5557 222.101 10.3804 228.025 15.9296 228.656Z" fill="#E1E1E6" stroke="#263238" stroke-linecap="round" stroke-linejoin="round"/>
<path d="M16.9603 220.121H65.0648C80.0803 220.121 84.5987 219.301 84.5987 219.301L93.8417 200.3C93.8417 200.3 64.6353 202.144 55.6157 201.529C51.8886 201.423 48.1767 201.012 44.5174 200.3L16.9603 220.121Z" fill="#50676C" stroke="#263238" stroke-linecap="round" stroke-linejoin="round"/>
<path d="M16.9603 220.121L17.785 223.791C17.785 223.791 56.8355 223.996 67.1093 223.996C77.383 223.996 85.2 224.406 85.2 224.406L84.5815 219.284L16.9603 220.121Z" fill="#E1E1E6" stroke="#263238" stroke-linecap="round" stroke-linejoin="round"/>
<path d="M85.1999 224.354L93.8244 204.739V200.249L84.5814 219.25L85.1999 224.354Z" fill="#E1E1E6" stroke="#263238" stroke-linecap="round" stroke-linejoin="round"/>
<path d="M223.947 247.299H106.177C105.916 247.301 105.657 247.252 105.416 247.154C105.174 247.057 104.954 246.912 104.769 246.73C104.584 246.547 104.437 246.33 104.336 246.091C104.236 245.851 104.184 245.595 104.184 245.336C104.184 245.076 104.236 244.82 104.336 244.58C104.437 244.341 104.584 244.124 104.769 243.941C104.954 243.759 105.174 243.614 105.416 243.517C105.657 243.419 105.916 243.37 106.177 243.372H223.947C224.207 243.37 224.465 243.419 224.706 243.517C224.947 243.615 225.165 243.759 225.349 243.942C225.533 244.125 225.679 244.342 225.777 244.582C225.876 244.821 225.925 245.077 225.923 245.336C225.925 245.594 225.876 245.85 225.777 246.09C225.679 246.329 225.533 246.546 225.349 246.729C225.165 246.912 224.947 247.056 224.706 247.154C224.465 247.252 224.207 247.301 223.947 247.299Z" fill="#161E22" stroke="#263238" stroke-linecap="round" stroke-linejoin="round"/>
<path d="M225.081 243.338H105.301C104.863 243.339 104.441 243.173 104.121 242.875C103.802 242.576 103.609 242.168 103.583 241.733L97.0716 163.971C97.0423 163.731 97.065 163.487 97.1381 163.255C97.2112 163.024 97.3331 162.81 97.4957 162.63C97.6582 162.449 97.8577 162.304 98.0808 162.206C98.3039 162.108 98.5456 162.058 98.7896 162.059H231.61C231.854 162.058 232.095 162.108 232.318 162.206C232.542 162.304 232.741 162.449 232.904 162.63C233.066 162.81 233.188 163.024 233.261 163.255C233.334 163.487 233.357 163.731 233.328 163.971L226.816 241.733C226.79 242.171 226.595 242.582 226.272 242.881C225.949 243.179 225.522 243.343 225.081 243.338Z" fill="#161E22" stroke="#263238" stroke-linecap="round" stroke-linejoin="round"/>
<path d="M293.407 143.298C295.244 141.873 296.535 139.867 297.066 137.613C297.452 135.922 297.411 134.162 296.946 132.491" stroke="#6C7D85" stroke-linecap="round" stroke-linejoin="round"/>
<path d="M279.697 204.176C279.697 204.176 291.122 197.347 287.394 189.545C283.666 181.743 271.055 176.571 271.055 164.415C271.055 153.933 282.274 150.058 289.593 145.858" stroke="#6C7D85" stroke-linecap="round" stroke-linejoin="round"/>
<path d="M290.246 203.954C290.246 203.954 296.619 199.737 296.619 193.045C296.619 188.555 291.792 185.619 285.418 178.397" stroke="#6C7D85" stroke-linecap="round" stroke-linejoin="round"/>
<path d="M281.897 174.027C281.897 174.027 277.72 170.766 280.797 164.637" stroke="#6C7D85" stroke-linecap="round" stroke-linejoin="round"/>
<path fill-rule="evenodd" clip-rule="evenodd" d="M172.277 201.687C175.381 202.625 177.405 204.138 177.405 205.735C177.405 207.327 175.391 208.84 172.306 209.779C173.028 212.894 172.714 215.375 171.317 216.171C170.988 216.358 170.61 216.446 170.192 216.446C168.824 216.446 167.033 215.493 165.223 213.832C163.412 215.503 161.621 216.466 160.253 216.466C159.835 216.466 159.457 216.377 159.134 216.19C157.731 215.395 157.412 212.908 158.129 209.784C155.025 208.845 153 207.332 153 205.735C153 204.143 155.015 202.635 158.109 201.692C157.388 198.577 157.701 196.096 159.099 195.3C159.427 195.113 159.805 195.025 160.223 195.025V195.02C161.591 195.02 163.382 195.973 165.193 197.633C167.004 195.963 168.794 195 170.162 195V195.005C170.573 195.006 170.95 195.094 171.272 195.28C172.675 196.076 172.993 198.562 172.277 201.687ZM170.157 196.096C169.123 196.098 167.603 196.914 165.984 198.4C166.685 199.122 167.382 199.948 168.053 200.856C169.172 200.974 170.237 201.156 171.212 201.392C171.322 200.896 171.411 200.409 171.466 199.948C171.695 198.071 171.401 196.612 170.725 196.228C170.57 196.145 170.386 196.101 170.157 196.101V196.096ZM164.402 198.405C162.78 196.926 161.253 196.115 160.223 196.115V196.12C159.994 196.12 159.8 196.16 159.651 196.248C158.979 196.636 158.691 198.095 158.925 199.972C158.984 200.429 159.069 200.906 159.183 201.397C160.158 201.156 161.223 200.974 162.347 200.856C163.009 199.948 163.705 199.127 164.402 198.405ZM170.257 204.399C170.516 203.745 170.744 203.092 170.929 202.458C170.277 202.301 169.595 202.173 168.889 202.07C169.133 202.443 169.376 202.827 169.605 203.22C169.839 203.613 170.053 204.006 170.257 204.399ZM167.451 209.568C167.864 208.983 168.262 208.354 168.65 207.691C169.023 207.047 169.366 206.389 169.68 205.73C169.366 205.072 169.023 204.419 168.645 203.775C168.257 203.117 167.854 202.493 167.441 201.908C166.705 201.849 165.954 201.815 165.203 201.815C164.447 201.815 163.695 201.849 162.954 201.913C162.541 202.497 162.143 203.126 161.755 203.79C161.382 204.433 161.034 205.092 160.726 205.75C161.039 206.408 161.382 207.062 161.76 207.705C162.148 208.364 162.551 208.988 162.964 209.572C163.7 209.631 164.452 209.666 165.203 209.666C165.959 209.666 166.71 209.631 167.451 209.568ZM170.943 209.007C170.754 208.369 170.526 207.71 170.257 207.052C170.053 207.445 169.839 207.843 169.61 208.236C169.381 208.634 169.138 209.022 168.894 209.4C169.605 209.297 170.292 209.165 170.943 209.007ZM163.83 210.722C164.287 211.297 164.75 211.823 165.213 212.294C165.67 211.823 166.133 211.297 166.581 210.722C166.128 210.747 165.665 210.757 165.198 210.757C164.735 210.757 164.277 210.742 163.83 210.722ZM159.472 209.012C160.124 209.17 160.805 209.297 161.512 209.4C161.268 209.027 161.029 208.644 160.795 208.251C160.561 207.858 160.348 207.465 160.144 207.072C159.885 207.725 159.656 208.379 159.472 209.012ZM166.571 200.748C166.113 200.174 165.65 199.648 165.188 199.176C164.73 199.648 164.268 200.174 163.82 200.748C164.272 200.724 164.735 200.714 165.203 200.714C165.665 200.714 166.123 200.729 166.571 200.748ZM160.79 203.234C161.019 202.836 161.263 202.448 161.507 202.07C160.795 202.173 160.109 202.306 159.457 202.458C159.646 203.097 159.875 203.755 160.144 204.414C160.348 204.021 160.561 203.628 160.79 203.234ZM154.104 205.735C154.104 206.507 155.244 207.479 157.005 208.221C157.437 208.403 157.905 208.57 158.397 208.722C158.676 207.764 159.044 206.767 159.502 205.745C159.039 204.718 158.666 203.716 158.383 202.753C157.9 202.905 157.432 203.067 157.005 203.249C155.244 203.986 154.104 204.964 154.104 205.735ZM158.94 211.523C158.711 213.4 159.004 214.859 159.681 215.242C159.83 215.326 160.019 215.37 160.243 215.375C161.278 215.375 162.8 214.559 164.422 213.071C163.72 212.348 163.024 211.523 162.352 210.614C161.233 210.496 160.168 210.314 159.193 210.078C159.084 210.575 158.994 211.061 158.94 211.523ZM170.754 215.223C171.426 214.834 171.715 213.375 171.481 211.498C171.426 211.041 171.336 210.565 171.222 210.069C170.247 210.309 169.182 210.491 168.058 210.609C167.397 211.518 166.7 212.339 166.004 213.061C167.625 214.54 169.153 215.35 170.182 215.35C170.411 215.35 170.605 215.311 170.754 215.223ZM172.018 208.718C172.5 208.565 172.968 208.403 173.396 208.221C175.157 207.484 176.296 206.507 176.301 205.735C176.301 204.964 175.162 203.991 173.401 203.249C172.963 203.067 172.496 202.9 172.003 202.748C171.724 203.706 171.356 204.703 170.899 205.725C171.361 206.752 171.734 207.755 172.018 208.718ZM167.471 205.735C167.471 206.975 166.453 207.981 165.198 207.981C163.942 207.981 162.924 206.975 162.924 205.735C162.924 204.495 163.942 203.49 165.198 203.49C166.453 203.49 167.471 204.495 167.471 205.735Z" fill="#61DCFB"/>
<path d="M130 20.5C126.5 34.4999 130 38.9999 130 38.9999C149 27.9999 183 26.9999 195.5 40.4999C195.5 40.4999 198 38 195.5 24C193 10 183.4 0.199994 163 0.999994C142.6 1.79999 133.5 6.50001 130 20.5Z" fill="#1F1E1E"/>
<path d="M147 40.5C136 43.5 131.5 39.0001 129.5 37.5001C174.5 23.0001 176 17.5 182.5 18C187.7 18.4 194.5 27.6667 194.5 29C197 32 191.5 35.5001 179.5 37.5001C168.672 39.3048 170 37.5001 165 37.5001C158.897 37.5001 159 34 147 40.5Z" fill="#1F1E1E"/>
<path d="M162 36C167.333 35.5 179 32.2 183 23" stroke="black" stroke-opacity="0.25" stroke-width="0.5" stroke-linecap="round"/>
<path d="M167 37C172.333 36.5 186.5 30.5 184 24" stroke="black" stroke-opacity="0.25" stroke-width="0.5" stroke-linecap="round"/>
<path d="M154 37C159.333 36.5 171 33.2 175 24" stroke="black" stroke-opacity="0.25" stroke-width="0.5"/>
<path d="M150.5 37.5C155.833 37 166.5 27.5 165.5 19.5" stroke="black" stroke-opacity="0.25" stroke-width="0.5"/>
<path d="M133 40C138.333 39.5 152 30 151 22.5" stroke="black" stroke-opacity="0.25" stroke-width="0.5"/>
<path d="M130.167 26.4342C132.375 28.338 142 25.5 144 18C143.242 20 140.129 26.3056 130.167 26.4342Z" fill="#131313"/>
<path d="M129.126 31.3663C131.334 33.2702 141.521 30.6845 145.5 22C146.645 19.5 139.088 31.2377 129.126 31.3663Z" fill="#131313"/>
<path d="M175.287 26.0724C176.868 25.405 179.463 20.3184 178.067 14.2689C177.664 12.5275 179.366 19.5732 175.287 26.0724Z" fill="#131313"/>
<path d="M131.5 38.5C136.167 39.3333 152 25.5 152 16.5C150 22.1667 138.7 37.7 131.5 38.5Z" fill="#131313"/>
<path d="M161.636 19.2207C155.103 40.4571 144.581 39.318 140 38.5C146.841 37.7398 158.827 27.1381 161.636 19.2207C161.759 18.8218 161.88 18.4149 162 18C161.905 18.3983 161.783 18.8058 161.636 19.2207Z" fill="#131313"/>
<path d="M153 35.5C157.667 36.3333 175.2 34.4 176 18C174 23.6667 160.2 34.7 153 35.5Z" fill="#131313"/>
<path d="M160 34.5C164.667 35.3333 185.5 29 183 15C181 27 167.2 33.7 160 34.5Z" fill="#131313"/>
<path d="M177 37C181.667 37.8333 196.5 30.5 183 20.5C188.313 27 184.5 36 177 37Z" fill="#131313"/>
<path d="M182 35.9338C185.64 36.789 197.029 29.7629 186.5 19.5C192.5 27.5 187.849 34.9075 182 35.9338Z" fill="#131313"/>
<path d="M184 35.5C188.667 36.3333 198.5 30.5 192.5 18C193.5 24.5 191.5 34.5 184 35.5Z" fill="#131313"/>
<path d="M140 37C145.333 36.5 158.5 26 155 19" stroke="black" stroke-opacity="0.25" stroke-width="0.5" stroke-linecap="round"/>
<path d="M155 36C160.333 35.5 172.5 22 170 18" stroke="black" stroke-opacity="0.25" stroke-width="0.5" stroke-linecap="round"/>
</svg>
